<?xml version="1.0" encoding="utf-8"?>
<!-- Generator: Adobe Illustrator 24.0.0, SVG Export Plug-In . SVG Version: 6.00 Build 0)  -->
<svg version="1.1" id="Livello_1" xmlns="http://www.w3.org/2000/svg" xmlns:xlink="http://www.w3.org/1999/xlink" x="0px" y="0px"
	 viewBox="0 0 595.3 170.1" style="enable-background:new 0 0 595.3 170.1;" xml:space="preserve">
<style type="text/css">
	.st0{fill:#EE352E;}
	.st1{fill:#FFFFFF;}
	.st2{fill:#FDFDFC;}
</style>
<g id="XMLID_1_">
	<path id="XMLID_87_" class="st0" d="M129.7,20.1c0.8,1.1,1.9,0.5,2.9,0.6c10.9,0.5,21.8,0.9,32.6,2.2c14.6,1.8,22,8.8,24.2,23.4
		c2.9,19,3,38.2,1.9,57.3c-0.4,7.6-1,15.1-2.4,22.6c-2.3,12.2-9.9,19.4-22.2,20.8c-20.3,2.4-40.7,2.6-61.1,2.8
		c-20.9,0.2-41.7-0.3-62.6-1.7c-4.7-0.3-9.4-0.8-14.1-1.7c-10.1-1.9-17.2-8.6-19.4-18.7c-1.8-8-2.2-16.1-2.9-24.3
		c-0.1-0.9,0.5-1.9-0.6-2.6c0-10.6,0-21.3,0-31.9c1.1-0.6,0.5-1.7,0.6-2.6c0.6-7.2,1.1-14.3,2.3-21.5c2.3-13.3,9.8-20.5,23.2-22.2
		c10.6-1.4,21.3-1.7,32-2.2c0.9,0,2.1,0.5,2.8-0.6C88,20.1,108.8,20.1,129.7,20.1z M80.8,57.4c0,18.6,0,36.7,0,55.3
		c16.1-9.3,31.9-18.4,48.1-27.7C112.7,75.7,96.9,66.6,80.8,57.4z"/>
	<path id="XMLID_84_" class="st1" d="M589.1,122c-1.1,0.8-0.5,2.1-0.7,3.1c-1.7,8.7-6.8,13.8-15.4,15.7c-5.5,1.2-10.9,1.2-16.3-0.3
		c-8.3-2.2-12.2-8.5-14.1-16.3c-0.7-2.8-1.3-5.8-1.4-8.7c-0.4-13.5-1.6-27.1,1.4-40.5c2.7-11.8,9.3-17.1,21.4-17.6
		c2.7-0.1,5.3-0.1,7.9,0.3c9.4,1.7,14.3,6.9,16.1,16.6c0.3,1.8,0.1,3.7,1.1,5.3c0,8.7,0,17.5,0,26.2c-9.8-0.1-19.5-0.1-29.3-0.2
		c-0.9,0-1.4,0.2-1.4,1.3c0.1,5.9-0.2,11.8,1.1,17.6c0.7,3.2,2.7,4.7,5.9,4.7c3.1,0,5.1-1.4,6.1-4.4c0.8-2.4,1.1-4.8,1.1-7.3
		c0-1.5,0.2-2.2,2-2.1c4.2,0.4,8.3,0.6,12.5,0.7c1.1,0,1.4,0.7,2,1.2C589.1,119,589.1,120.5,589.1,122z M558.4,86c0,2.3,0,4.9,0,7.6
		c0,1.1,0.1,1.8,1.5,1.7c3.5-0.1,7,0,10.5,0c0.8,0,1.5,0,1.5-1.2c-0.1-6.4,0.3-12.9-1.1-19.2c-0.7-3.3-2.9-4.7-6.2-4.7
		c-2.8,0.1-4.3,1.4-5.2,4.7C558.5,78.4,558.7,82,558.4,86z"/>
	<path id="XMLID_79_" class="st1" d="M498.8,67.9c3.3-5.2,7.2-8.5,12.5-9.8c8.2-2,15,1.6,18.1,9.3c1.8,4.7,2.4,9.6,2.6,14.5
		c0.6,13,1.1,26-0.4,38.9c-0.5,3.8-1.3,7.4-2.8,11c-2.3,5.5-6,9.5-12.2,10.1c-6.8,0.7-12.7-1.4-17-7c-0.4-0.5-0.7-1.1-1.3-1.8
		c-0.3,0.7-0.5,1.2-0.6,1.7c-1.6,6-1.6,6-7.7,6c-2.2,0-4.4-0.1-6.5,0c-2.1,0.2-2.5-0.6-2.5-2.5c0.1-17.4,0-34.7,0-52.1
		c0-19.3,0.1-38.7-0.1-58c0-2.6,0.8-3.1,3.1-3c3.9,0.2,7.8,0.3,11.7,0c2.8-0.2,3.2,0.9,3.1,3.3C498.7,41.3,498.8,54.2,498.8,67.9z
		 M513.9,100.9c0-4.5,0.1-9.1,0-13.6c-0.1-4.2-0.3-8.5-1.7-12.6c-1.4-3.9-5-5.1-8.5-2.9c-2.9,1.9-4.7,4.5-4.7,8.2c0,14,0,28,0,42
		c0,3.5,1.8,5.6,5.1,6.3c3.6,0.8,6.2-0.5,7.5-3.8c0.5-1.3,0.9-2.7,1.1-4.1C513.9,114,513.9,107.5,513.9,100.9z"/>
	<path id="XMLID_78_" class="st1" d="M359.8,130.5c-3.3,5.9-7.2,9.7-13.1,11.2c-10.5,2.6-18.6-2.9-20-13.6c-0.4-2.9-0.6-5.8-0.6-8.8
		c0-19.1,0-38.1,0-57.2c0-2.1,0.4-2.9,2.7-2.8c4.4,0.2,8.9,0.2,13.4,0c2.1-0.1,2.5,0.6,2.5,2.5c-0.1,18.5-0.1,37,0,55.5
		c0,2.8-0.1,5.7,0.8,8.5c0.7,2.2,2.1,3.2,4.4,3.2c4.4,0,7.6-3.2,7.6-7.6c0-19.8,0-39.6-0.1-59.5c0-2.2,0.6-2.7,2.7-2.6
		c4.6,0.2,9.3,0.1,13.9,0c1.7,0,2.1,0.5,2,2.1c0,25.8,0,51.6,0,77.4c0,1.4-0.2,2.1-1.8,2c-3.7-0.1-7.4-0.1-11.1,0
		c-1.4,0-1.7-0.5-1.9-1.7C360.9,136.5,360.4,133.9,359.8,130.5z"/>
	<path id="XMLID_77_" class="st1" d="M453.9,130.5c-3,5.4-6.5,9.1-11.8,10.8c-11.4,3.6-20.4-2.4-21.6-14.3
		c-0.5-5.3-0.4-10.6-0.4-15.9c0-16.3,0-32.6-0.1-48.9c0-2.3,0.6-2.9,2.8-2.8c4.5,0.2,8.9,0.2,13.4,0c2-0.1,2.5,0.5,2.5,2.5
		c-0.1,18.7-0.1,37.4,0,56.1c0,2.5-0.1,4.9,0.6,7.3c0.9,3,2.3,4,5.4,3.7c4-0.4,6.8-3.3,6.8-7.3c0-19.8,0-39.6,0-59.5
		c0-2.1,0.4-3,2.7-2.9c4.5,0.2,9.1,0.1,13.7,0c1.7,0,2.3,0.3,2.3,2.2c-0.1,25.7-0.1,51.4,0,77.1c0,1.7-0.4,2.3-2.2,2.2
		c-3.5-0.2-7-0.1-10.5,0c-1.3,0-2-0.2-2.1-1.8C455,136.4,454.5,133.9,453.9,130.5z"/>
	<path id="XMLID_74_" class="st1" d="M316.8,102.1c-0.1,5.6,0,13.1-1.5,20.5c-2.7,13.6-10.1,19.7-23.9,19.5c-2.9,0-5.9-0.3-8.7-1
		c-9-2.1-13.3-8.4-15.2-16.9c-0.8-3.6-1.3-7.3-1.4-11c-0.4-12-1.1-24.1,1.3-36c3.1-15.6,13.3-20.7,28.1-19.3
		c11.5,1.1,18,7,20.4,22.6C316.8,87.1,316.8,93.7,316.8,102.1z M284.6,99.9c0,5.2-0.1,10.4,0,15.6c0.1,3.5,0.3,7,1.6,10.3
		c0.9,2.2,2.5,3.5,5,3.6c2.5,0.1,4.1-1.3,5.1-3.4c0.8-1.8,1.2-3.8,1.4-5.8c0.9-12.2,0.4-24.4,0.3-36.6c0-3.3-0.3-6.6-1.6-9.7
		c-0.9-2.2-2.6-3.5-5.1-3.4c-2.4,0-4.1,1.3-5,3.5c-0.7,1.8-1.1,3.6-1.3,5.5C284.2,86.2,284.7,93.1,284.6,99.9z"/>
	<path id="XMLID_73_" class="st1" d="M210.6,29.3c5.7,0,11.3,0,16.9,0c1.6,0,1.6,1.1,1.8,2c3.6,17.6,7.9,35,10.9,52.7
		c0,0.2,0.1,0.3,0.3,0.6c1.8-8.8,3.6-17.5,5.5-26.2c2-9.1,4.1-18.2,6.1-27.4c0.3-1.2,0.5-1.8,1.9-1.8c5.5,0.1,11,0,16.8,0
		c-1.8,6.4-3.5,12.6-5.2,18.7c-5.1,18.3-10.2,36.5-15.4,54.8c-0.4,1.3-0.4,2.6-0.4,3.9c0,10.3-0.1,20.7,0.1,31c0,2.3-0.4,3.2-2.9,3
		c-4.2-0.2-8.3-0.2-12.5,0c-2.2,0.1-2.9-0.4-2.9-2.8c0.2-6.1-0.2-12.2,0.1-18.2c0.6-10.1-1.2-19.7-4-29.3
		c-5.8-19.8-11.1-39.8-16.6-59.7C210.8,30.4,210.7,29.9,210.6,29.3z"/>
	<path id="XMLID_72_" class="st1" d="M407.6,92.5c0,15.2-0.1,30.4,0.1,45.5c0,2.3-0.6,2.9-2.8,2.8c-4.1-0.2-8.2-0.2-12.2,0
		c-2.4,0.1-3-0.6-3-3c0.1-25.4,0.1-50.8,0.1-76.3c0-5-0.1-10.1,0-15.1c0-1.8-0.4-2.5-2.3-2.4c-4.5,0.2-9.1,0-13.7,0.1
		c-1.6,0-2.4-0.2-2.3-2.1c0.2-3.5,0.1-7,0-10.5c-0.1-1.7,0.3-2.3,2.2-2.3c16.7,0.1,33.4,0.1,50.1,0c1.8,0,2.2,0.5,2.2,2.2
		c-0.1,3.6-0.1,7.2,0,10.8c0,1.5-0.4,1.9-1.9,1.9c-4.4-0.1-8.7,0.1-13.1-0.1c-2.5-0.1-3.3,0.4-3.3,3.2
		C407.6,62.3,407.6,77.4,407.6,92.5z"/>
	<path id="XMLID_71_" class="st2" d="M80.8,57.4c16.1,9.2,31.8,18.3,48.1,27.6c-16.2,9.3-32,18.4-48.1,27.7
		C80.8,94.1,80.8,76,80.8,57.4z"/>
</g>
</svg>
